<svg xmlns:xlink="http://www.w3.org/1999/xlink" xmlns="http://www.w3.org/2000/svg" width="600" height="400" viewBox="0,0,600,400" style="max-width: 100%; height: auto; height: intrinsic;"><g transform="translate(0,370)" fill="none" font-size="10" font-family="sans-serif" text-anchor="middle"><path class="domain" stroke="#000000" d="M40.5,0.5H500.5" fill="none"></path><g class="tick" opacity="1" transform="translate(47.76648351648352,0)" fill="none"><line stroke="#000000" y2="6" fill="none"></line><text fill="currentColor" y="9" dy="0.71em">Mar 20</text></g><g class="tick" opacity="1" transform="translate(83.15109890109889,0)" fill="none"><line stroke="#000000" y2="6" fill="none"></line><text fill="currentColor" y="9" dy="0.71em">Mar 27</text></g><g class="tick" opacity="1" transform="translate(118.53571428571428,0)" fill="none"><line stroke="#000000" y2="6" fill="none"></line><text fill="currentColor" y="9" dy="0.71em">Apr 03</text></g><g class="tick" opacity="1" transform="translate(153.92032967032966,0)" fill="none"><line stroke="#000000" y2="6" fill="none"></line><text fill="currentColor" y="9" dy="0.71em">Apr 10</text></g><g class="tick" opacity="1" transform="translate(189.30494505494505,0)" fill="none"><line stroke="#000000" y2="6" fill="none"></line><text fill="currentColor" y="9" dy="0.71em">Apr 17</text></g><g class="tick" opacity="1" transform="translate(224.68956043956047,0)" fill="none"><line stroke="#000000" y2="6" fill="none"></line><text fill="currentColor" y="9" dy="0.71em">Apr 24</text></g><g class="tick" opacity="1" transform="translate(260.0741758241758,0)" fill="none"><line stroke="#000000" y2="6" fill="none"></line><text fill="currentColor" y="9" dy="0.71em">May</text></g><g class="tick" opacity="1" transform="translate(295.4587912087912,0)" fill="none"><line stroke="#000000" y2="6" fill="none"></line><text fill="currentColor" y="9" dy="0.71em">May 08</text></g><g class="tick" opacity="1" transform="translate(330.8434065934066,0)" fill="none"><line stroke="#000000" y2="6" fill="none"></line><text fill="currentColor" y="9" dy="0.71em">May 15</text></g><g class="tick" opacity="1" transform="translate(366.228021978022,0)" fill="none"><line stroke="#000000" y2="6" fill="none"></line><text fill="currentColor" y="9" dy="0.71em">May 22</text></g><g class="tick" opacity="1" transform="translate(401.6126373626373,0)" fill="none"><line stroke="#000000" y2="6" fill="none"></line><text fill="currentColor" y="9" dy="0.71em">May 29</text></g><g class="tick" opacity="1" transform="translate(436.9972527472528,0)" fill="none"><line stroke="#000000" y2="6" fill="none"></line><text fill="currentColor" y="9" dy="0.71em">Jun 05</text></g><g class="tick" opacity="1" transform="translate(472.38186813186815,0)" fill="none"><line stroke="#000000" y2="6" fill="none"></line><text fill="currentColor" y="9" dy="0.71em">Jun 12</text></g></g><g transform="translate(40,0)" fill="none" font-size="10" font-family="sans-serif" text-anchor="end"><path class="domain" stroke="#000000" d="M-6,370.5H0.5V30.5H-6" fill="none"></path><g class="tick" opacity="1" transform="translate(0,370.5)" fill="none"><line stroke="#000000" x2="-6" fill="none"></line><text fill="currentColor" x="-9" dy="0.32em">0</text></g><g class="tick" opacity="1" transform="translate(0,311.3874531880788)" fill="none"><line stroke="#000000" x2="-6" fill="none"></line><text fill="currentColor" x="-9" dy="0.32em">500</text></g><g class="tick" opacity="1" transform="translate(0,252.27490637615747)" fill="none"><line stroke="#000000" x2="-6" fill="none"></line><text fill="currentColor" x="-9" dy="0.32em">1,000</text></g><g class="tick" opacity="1" transform="translate(0,193.1623595642362)" fill="none"><line stroke="#000000" x2="-6" fill="none"></line><text fill="currentColor" x="-9" dy="0.32em">1,500</text></g><g class="tick" opacity="1" transform="translate(0,134.04981275231495)" fill="none"><line stroke="#000000" x2="-6" fill="none"></line><text fill="currentColor" x="-9" dy="0.32em">2,000</text></g><g class="tick" opacity="1" transform="translate(0,74.93726594039367)" fill="none"><line stroke="#000000" x2="-6" fill="none"></line><text fill="currentColor" x="-9" dy="0.32em">2,500</text></g><text x="-40" y="10" fill="currentColor" text-anchor="start">↑ Price ($)</text></g><g><text x="540" y="225" fill="#1F77B4">META</text><text x="540" y="205" fill="#FF7F0E">GOOGL</text><text x="540" y="185" fill="#2CA02C">TSLA</text><text x="540" y="165" fill="#D62728">AMZN</text></g><g><g><path fill="none" stroke="#1F77B4" stroke-width="3px" stroke-linecap="round" stroke-linejoin="round" stroke-opacity="1" style="mix-blend-mode: multiply;" d="M40,344.36879970235094L55.16483516483517,344.6158901480248L60.21978021978022,344.0543209533115L65.27472527472527,344.36879970235094L70.32967032967034,343.9112685900267L75.38461538461539,343.34024138782354L90.54945054945054,343.5128500245143L95.6043956043956,342.703008133191L100.65934065934067,342.6722696088488L105.71428571428572,342.9867483578882L110.76923076923077,343.12980072117307L125.93406593406593,342.2939493092525L130.98901098901098,341.99720432425664L136.04395604395603,342.9276358110763L141.09890109890108,343.337876885951L146.15384615384616,343.38398467246435L161.31868131868134,343.9183620956441L166.3736263736264,343.75048246269824L171.42857142857144,344.3912624701395L176.4835164835165,344.5827871218101L196.7032967032967,344.7731295225445L201.75824175824175,344.1760927997441L206.8131868131868,344.6809139495179L211.86813186813185,346.0038527471687L216.92307692307693,347.21565995681306L232.0879120879121,347.87062697548913L237.14285714285714,347.86944472455286L242.1978021978022,348.57643078442356L247.25274725274727,345.3465212266201L252.30769230769232,344.879532106806L267.4725274725275,344.95046716298026L272.5274725274725,344.5934273802362L277.5824175824176,343.48211150017215L282.6373626373627,343.97038113683857L287.6923076923077,345.2460298970399L302.8571428571429,346.0511427846182L307.91208791208794,346.0050349981049L312.967032967033,346.27577046250354L318.021978021978,346.58552020779797L323.0769230769231,346.36798603553007L338.24175824175825,345.7201125224715L343.2967032967033,345.7094722640453L348.35164835164835,346.23675618160763L353.4065934065934,346.9118214661998L358.46153846153845,346.6020717209053L373.6263736263736,346.71083880703924L378.6813186813187,348.28441480317264L383.7362637362637,348.0751563874584L388.7912087912088,347.20265519651446L393.84615384615387,346.90709246245484L414.0659340659341,346.63872149992875L419.12087912087907,346.41054706923467L424.1758241758242,346.24384968722507L429.2307692307692,346.7557643426163L444.3956043956044,346.71911456359294L449.45054945054943,346.7652223501062L454.50549450549454,346.1149843351751L459.56043956043953,346.42000507672464L464.61538461538464,348.35298535747444L479.7802197802198,349.59671334239727L484.83516483516485,350.28596563822424L489.8901098901099,349.64636788171924L494.94505494505495,350.48340154457605L500,350.3864569678045"></path><text></text><circle r="4" fill="#1F77B4" cx="40" cy="344.36879970235094"></circle><circle r="4" fill="#1F77B4" cx="55.16483516483517" cy="344.6158901480248"></circle><circle r="4" fill="#1F77B4" cx="60.21978021978022" cy="344.0543209533115"></circle><circle r="4" fill="#1F77B4" cx="65.27472527472527" cy="344.36879970235094"></circle><circle r="4" fill="#1F77B4" cx="70.32967032967034" cy="343.9112685900267"></circle><circle r="4" fill="#1F77B4" cx="75.38461538461539" cy="343.34024138782354"></circle><circle r="4" fill="#1F77B4" cx="90.54945054945054" cy="343.5128500245143"></circle><circle r="4" fill="#1F77B4" cx="95.6043956043956" cy="342.703008133191"></circle><circle r="4" fill="#1F77B4" cx="100.65934065934067" cy="342.6722696088488"></circle><circle r="4" fill="#1F77B4" cx="105.71428571428572" cy="342.9867483578882"></circle><circle r="4" fill="#1F77B4" cx="110.76923076923077" cy="343.12980072117307"></circle><circle r="4" fill="#1F77B4" cx="125.93406593406593" cy="342.2939493092525"></circle><circle r="4" fill="#1F77B4" cx="130.98901098901098" cy="341.99720432425664"></circle><circle r="4" fill="#1F77B4" cx="136.04395604395603" cy="342.9276358110763"></circle><circle r="4" fill="#1F77B4" cx="141.09890109890108" cy="343.337876885951"></circle><circle r="4" fill="#1F77B4" cx="146.15384615384616" cy="343.38398467246435"></circle><circle r="4" fill="#1F77B4" cx="161.31868131868134" cy="343.9183620956441"></circle><circle r="4" fill="#1F77B4" cx="166.3736263736264" cy="343.75048246269824"></circle><circle r="4" fill="#1F77B4" cx="171.42857142857144" cy="344.3912624701395"></circle><circle r="4" fill="#1F77B4" cx="176.4835164835165" cy="344.5827871218101"></circle><circle r="4" fill="#1F77B4" cx="196.7032967032967" cy="344.7731295225445"></circle><circle r="4" fill="#1F77B4" cx="201.75824175824175" cy="344.1760927997441"></circle><circle r="4" fill="#1F77B4" cx="206.8131868131868" cy="344.6809139495179"></circle><circle r="4" fill="#1F77B4" cx="211.86813186813185" cy="346.0038527471687"></circle><circle r="4" fill="#1F77B4" cx="216.92307692307693" cy="347.21565995681306"></circle><circle r="4" fill="#1F77B4" cx="232.0879120879121" cy="347.87062697548913"></circle><circle r="4" fill="#1F77B4" cx="237.14285714285714" cy="347.86944472455286"></circle><circle r="4" fill="#1F77B4" cx="242.1978021978022" cy="348.57643078442356"></circle><circle r="4" fill="#1F77B4" cx="247.25274725274727" cy="345.3465212266201"></circle><circle r="4" fill="#1F77B4" cx="252.30769230769232" cy="344.879532106806"></circle><circle r="4" fill="#1F77B4" cx="267.4725274725275" cy="344.95046716298026"></circle><circle r="4" fill="#1F77B4" cx="272.5274725274725" cy="344.5934273802362"></circle><circle r="4" fill="#1F77B4" cx="277.5824175824176" cy="343.48211150017215"></circle><circle r="4" fill="#1F77B4" cx="282.6373626373627" cy="343.97038113683857"></circle><circle r="4" fill="#1F77B4" cx="287.6923076923077" cy="345.2460298970399"></circle><circle r="4" fill="#1F77B4" cx="302.8571428571429" cy="346.0511427846182"></circle><circle r="4" fill="#1F77B4" cx="307.91208791208794" cy="346.0050349981049"></circle><circle r="4" fill="#1F77B4" cx="312.967032967033" cy="346.27577046250354"></circle><circle r="4" fill="#1F77B4" cx="318.021978021978" cy="346.58552020779797"></circle><circle r="4" fill="#1F77B4" cx="323.0769230769231" cy="346.36798603553007"></circle><circle r="4" fill="#1F77B4" cx="338.24175824175825" cy="345.7201125224715"></circle><circle r="4" fill="#1F77B4" cx="343.2967032967033" cy="345.7094722640453"></circle><circle r="4" fill="#1F77B4" cx="348.35164835164835" cy="346.23675618160763"></circle><circle r="4" fill="#1F77B4" cx="353.4065934065934" cy="346.9118214661998"></circle><circle r="4" fill="#1F77B4" cx="358.46153846153845" cy="346.6020717209053"></circle><circle r="4" fill="#1F77B4" cx="373.6263736263736" cy="346.71083880703924"></circle><circle r="4" fill="#1F77B4" cx="378.6813186813187" cy="348.28441480317264"></circle><circle r="4" fill="#1F77B4" cx="383.7362637362637" cy="348.0751563874584"></circle><circle r="4" fill="#1F77B4" cx="388.7912087912088" cy="347.20265519651446"></circle><circle r="4" fill="#1F77B4" cx="393.84615384615387" cy="346.90709246245484"></circle><circle r="4" fill="#1F77B4" cx="414.0659340659341" cy="346.63872149992875"></circle><circle r="4" fill="#1F77B4" cx="419.12087912087907" cy="346.41054706923467"></circle><circle r="4" fill="#1F77B4" cx="424.1758241758242" cy="346.24384968722507"></circle><circle r="4" fill="#1F77B4" cx="429.2307692307692" cy="346.7557643426163"></circle><circle r="4" fill="#1F77B4" cx="444.3956043956044" cy="346.71911456359294"></circle><circle r="4" fill="#1F77B4" cx="449.45054945054943" cy="346.7652223501062"></circle><circle r="4" fill="#1F77B4" cx="454.50549450549454" cy="346.1149843351751"></circle><circle r="4" fill="#1F77B4" cx="459.56043956043953" cy="346.42000507672464"></circle><circle r="4" fill="#1F77B4" cx="464.61538461538464" cy="348.35298535747444"></circle><circle r="4" fill="#1F77B4" cx="479.7802197802198" cy="349.59671334239727"></circle><circle r="4" fill="#1F77B4" cx="484.83516483516485" cy="350.28596563822424"></circle><circle r="4" fill="#1F77B4" cx="489.8901098901099" cy="349.64636788171924"></circle><circle r="4" fill="#1F77B4" cx="494.94505494505495" cy="350.48340154457605"></circle><circle r="4" fill="#1F77B4" cx="500" cy="350.3864569678045"></circle></g><g><path fill="none" stroke="#FF7F0E" stroke-width="3px" stroke-linecap="round" stroke-linejoin="round" stroke-opacity="1" style="mix-blend-mode: multiply;" d="M40,47.85080688626397L55.16483516483517,45.945018377047624L60.21978021978022,36.48701088714024L65.27472527472527,39.94273037376515L70.32967032967034,35.141609321700884L75.38461538461539,34.15797654275055L90.54945054945054,34.23482285360599L95.6043956043956,30L100.65934065934067,32.53711050916768L105.71428571428572,33.98536790605973L110.76923076923077,37.85605747130431L125.93406593406593,30.192706902606872L130.98901098901098,31.898695003598892L136.04395604395603,40.48183680068985L141.09890109890108,45.67428291264903L146.15384615384616,49.20803096106567L161.31868131868134,57.66703640985163L166.3736263736264,58.83155358204646L171.42857142857144,61.825012952602194L176.4835164835165,61.480977930156754L196.7032967032967,66.84130367506181L201.75824175824175,61.82737745447466L206.8131868131868,59.30681845841431L211.86813186813185,62.381853143570474L216.92307692307693,73.48673618765798L232.0879120879121,78.51012041573502L237.14285714285714,80.32487560286104L242.1978021978022,92.78107146706905L247.25274725274727,87.08853320908109L252.30769230769232,91.17793919752975L267.4725274725275,93.95504664675387L272.5274725274725,89.94366922009685L277.5824175824176,79.51030470779276L282.6373626373627,83.80305785727447L287.6923076923077,92.00196810008796L302.8571428571429,97.90021802098147L307.91208791208794,95.12665732456611L312.967032967033,94.85592186016751L318.021978021978,99.74925848525834L323.0769230769231,91.28434178179124L338.24175824175825,95.31581747436428L343.2967032967033,93.58973110745617L348.35164835164835,97.13648391617144L353.4065934065934,102.78764339139113L358.46153846153845,104.74190418899323L373.6263736263736,104.82702625640242L378.6813186813187,118.2786774089232L383.7362637362637,118.18055058121543L388.7912087912088,113.09805380632643L393.84615384615387,104.42387868714509L414.0659340659341,96.34437578889172L419.12087912087907,93.11328398015206L424.1758241758242,91.2264114859156L429.2307692307692,94.95759544068403L444.3956043956044,87.80379502550532L449.45054945054943,91.71941012632696L454.50549450549454,89.6398307294836L459.56043956043953,90.28179298786104L464.61538461538464,102.15159238769488L479.7802197802198,112.76229454043471L484.83516483516485,114.81231766387216L489.8901098901099,106.53892561207569L494.94505494505495,113.10041830819894L500,112.97982871270261"></path><text></text><circle r="4" fill="#FF7F0E" cx="40" cy="47.85080688626397"></circle><circle r="4" fill="#FF7F0E" cx="55.16483516483517" cy="45.945018377047624"></circle><circle r="4" fill="#FF7F0E" cx="60.21978021978022" cy="36.48701088714024"></circle><circle r="4" fill="#FF7F0E" cx="65.27472527472527" cy="39.94273037376515"></circle><circle r="4" fill="#FF7F0E" cx="70.32967032967034" cy="35.141609321700884"></circle><circle r="4" fill="#FF7F0E" cx="75.38461538461539" cy="34.15797654275055"></circle><circle r="4" fill="#FF7F0E" cx="90.54945054945054" cy="34.23482285360599"></circle><circle r="4" fill="#FF7F0E" cx="95.6043956043956" cy="30"></circle><circle r="4" fill="#FF7F0E" cx="100.65934065934067" cy="32.53711050916768"></circle><circle r="4" fill="#FF7F0E" cx="105.71428571428572" cy="33.98536790605973"></circle><circle r="4" fill="#FF7F0E" cx="110.76923076923077" cy="37.85605747130431"></circle><circle r="4" fill="#FF7F0E" cx="125.93406593406593" cy="30.192706902606872"></circle><circle r="4" fill="#FF7F0E" cx="130.98901098901098" cy="31.898695003598892"></circle><circle r="4" fill="#FF7F0E" cx="136.04395604395603" cy="40.48183680068985"></circle><circle r="4" fill="#FF7F0E" cx="141.09890109890108" cy="45.67428291264903"></circle><circle r="4" fill="#FF7F0E" cx="146.15384615384616" cy="49.20803096106567"></circle><circle r="4" fill="#FF7F0E" cx="161.31868131868134" cy="57.66703640985163"></circle><circle r="4" fill="#FF7F0E" cx="166.3736263736264" cy="58.83155358204646"></circle><circle r="4" fill="#FF7F0E" cx="171.42857142857144" cy="61.825012952602194"></circle><circle r="4" fill="#FF7F0E" cx="176.4835164835165" cy="61.480977930156754"></circle><circle r="4" fill="#FF7F0E" cx="196.7032967032967" cy="66.84130367506181"></circle><circle r="4" fill="#FF7F0E" cx="201.75824175824175" cy="61.82737745447466"></circle><circle r="4" fill="#FF7F0E" cx="206.8131868131868" cy="59.30681845841431"></circle><circle r="4" fill="#FF7F0E" cx="211.86813186813185" cy="62.381853143570474"></circle><circle r="4" fill="#FF7F0E" cx="216.92307692307693" cy="73.48673618765798"></circle><circle r="4" fill="#FF7F0E" cx="232.0879120879121" cy="78.51012041573502"></circle><circle r="4" fill="#FF7F0E" cx="237.14285714285714" cy="80.32487560286104"></circle><circle r="4" fill="#FF7F0E" cx="242.1978021978022" cy="92.78107146706905"></circle><circle r="4" fill="#FF7F0E" cx="247.25274725274727" cy="87.08853320908109"></circle><circle r="4" fill="#FF7F0E" cx="252.30769230769232" cy="91.17793919752975"></circle><circle r="4" fill="#FF7F0E" cx="267.4725274725275" cy="93.95504664675387"></circle><circle r="4" fill="#FF7F0E" cx="272.5274725274725" cy="89.94366922009685"></circle><circle r="4" fill="#FF7F0E" cx="277.5824175824176" cy="79.51030470779276"></circle><circle r="4" fill="#FF7F0E" cx="282.6373626373627" cy="83.80305785727447"></circle><circle r="4" fill="#FF7F0E" cx="287.6923076923077" cy="92.00196810008796"></circle><circle r="4" fill="#FF7F0E" cx="302.8571428571429" cy="97.90021802098147"></circle><circle r="4" fill="#FF7F0E" cx="307.91208791208794" cy="95.12665732456611"></circle><circle r="4" fill="#FF7F0E" cx="312.967032967033" cy="94.85592186016751"></circle><circle r="4" fill="#FF7F0E" cx="318.021978021978" cy="99.74925848525834"></circle><circle r="4" fill="#FF7F0E" cx="323.0769230769231" cy="91.28434178179124"></circle><circle r="4" fill="#FF7F0E" cx="338.24175824175825" cy="95.31581747436428"></circle><circle r="4" fill="#FF7F0E" cx="343.2967032967033" cy="93.58973110745617"></circle><circle r="4" fill="#FF7F0E" cx="348.35164835164835" cy="97.13648391617144"></circle><circle r="4" fill="#FF7F0E" cx="353.4065934065934" cy="102.78764339139113"></circle><circle r="4" fill="#FF7F0E" cx="358.46153846153845" cy="104.74190418899323"></circle><circle r="4" fill="#FF7F0E" cx="373.6263736263736" cy="104.82702625640242"></circle><circle r="4" fill="#FF7F0E" cx="378.6813186813187" cy="118.2786774089232"></circle><circle r="4" fill="#FF7F0E" cx="383.7362637362637" cy="118.18055058121543"></circle><circle r="4" fill="#FF7F0E" cx="388.7912087912088" cy="113.09805380632643"></circle><circle r="4" fill="#FF7F0E" cx="393.84615384615387" cy="104.42387868714509"></circle><circle r="4" fill="#FF7F0E" cx="414.0659340659341" cy="96.34437578889172"></circle><circle r="4" fill="#FF7F0E" cx="419.12087912087907" cy="93.11328398015206"></circle><circle r="4" fill="#FF7F0E" cx="424.1758241758242" cy="91.2264114859156"></circle><circle r="4" fill="#FF7F0E" cx="429.2307692307692" cy="94.95759544068403"></circle><circle r="4" fill="#FF7F0E" cx="444.3956043956044" cy="87.80379502550532"></circle><circle r="4" fill="#FF7F0E" cx="449.45054945054943" cy="91.71941012632696"></circle><circle r="4" fill="#FF7F0E" cx="454.50549450549454" cy="89.6398307294836"></circle><circle r="4" fill="#FF7F0E" cx="459.56043956043953" cy="90.28179298786104"></circle><circle r="4" fill="#FF7F0E" cx="464.61538461538464" cy="102.15159238769488"></circle><circle r="4" fill="#FF7F0E" cx="479.7802197802198" cy="112.76229454043471"></circle><circle r="4" fill="#FF7F0E" cx="484.83516483516485" cy="114.81231766387216"></circle><circle r="4" fill="#FF7F0E" cx="489.8901098901099" cy="106.53892561207569"></circle><circle r="4" fill="#FF7F0E" cx="494.94505494505495" cy="113.10041830819894"></circle><circle r="4" fill="#FF7F0E" cx="500" cy="112.97982871270261"></circle></g><g><path fill="none" stroke="#2CA02C" stroke-width="3px" stroke-linecap="round" stroke-linejoin="round" stroke-opacity="1" style="mix-blend-mode: multiply;" d="M40,262.6693487535946L55.16483516483517,258.5314704767601L60.21978021978022,252.02790807651252L65.27472527472527,246.96314506566708L70.32967032967034,248.87957383330956L75.38461538461539,249.19759933515772L90.54945054945054,240.20303421225577L95.6043956043956,238.20621238094907L100.65934065934067,238.30315695772063L105.71428571428572,239.58117021979433L110.76923076923077,240.5730787552984L125.93406593406593,234.05178259100725L130.98901098901098,233.70183631388068L136.04395604395603,242.43512397987394L141.09890109890108,242.72004645550734L146.15384615384616,246.04808284101853L161.31868131868134,250.7735398331635L166.3736263736264,249.26971664226826L171.42857142857144,248.67267991946784L176.4835164835165,250.27226543619844L196.7032967032967,250.01098797928975L201.75824175824175,247.6441216049404L206.8131868131868,247.75525319294684L211.86813186813185,240.8721882421667L216.92307692307693,247.65476186336656L232.0879120879121,250.75580606911993L237.14285714285714,251.77490637615747L242.1978021978022,261.4693640533126L247.25274725274727,263.5974157385417L252.30769230769232,259.53047251788155L267.4725274725275,262.8455041430941L272.5274725274725,260.75055548407954L277.5824175824176,257.03592304241846L282.6373626373627,258.20635146929453L287.6923076923077,265.01611686202784L302.8571428571429,270.02531407887005L307.91208791208794,272.42173672662534L312.967032967033,274.26486593622104L318.021978021978,280.1891253777118L323.0769230769231,276.91547253526755L338.24175824175825,278.9950519321109L343.2967032967033,279.61928042644485L348.35164835164835,280.08981629906776L353.4065934065934,283.2227812800995L358.46153846153845,284.6911369429077L373.6263736263736,289.611665339532L378.6813186813187,292.69024677749695L383.7362637362637,290.8695803356897L388.7912087912088,285.03517196535313L393.84615384615387,280.17257386460443L414.0659340659341,277.92629708575146L419.12087912087907,278.73259222426606L424.1758241758242,276.2912440409337L429.2307692307692,282.1126476509717L444.3956043956044,283.1518462239253L449.45054945054943,284.87911484176965L454.50549450549454,281.3441845424167L459.56043956043953,279.36391422421735L464.61538461538464,285.0552702312691L479.7802197802198,289.61875884514944L484.83516483516485,289.72634368034716L489.8901098901099,286.41604105887956L494.94505494505495,290.1389492570944L500,291.6274031858186"></path><text></text><circle r="4" fill="#2CA02C" cx="40" cy="262.6693487535946"></circle><circle r="4" fill="#2CA02C" cx="55.16483516483517" cy="258.5314704767601"></circle><circle r="4" fill="#2CA02C" cx="60.21978021978022" cy="252.02790807651252"></circle><circle r="4" fill="#2CA02C" cx="65.27472527472527" cy="246.96314506566708"></circle><circle r="4" fill="#2CA02C" cx="70.32967032967034" cy="248.87957383330956"></circle><circle r="4" fill="#2CA02C" cx="75.38461538461539" cy="249.19759933515772"></circle><circle r="4" fill="#2CA02C" cx="90.54945054945054" cy="240.20303421225577"></circle><circle r="4" fill="#2CA02C" cx="95.6043956043956" cy="238.20621238094907"></circle><circle r="4" fill="#2CA02C" cx="100.65934065934067" cy="238.30315695772063"></circle><circle r="4" fill="#2CA02C" cx="105.71428571428572" cy="239.58117021979433"></circle><circle r="4" fill="#2CA02C" cx="110.76923076923077" cy="240.5730787552984"></circle><circle r="4" fill="#2CA02C" cx="125.93406593406593" cy="234.05178259100725"></circle><circle r="4" fill="#2CA02C" cx="130.98901098901098" cy="233.70183631388068"></circle><circle r="4" fill="#2CA02C" cx="136.04395604395603" cy="242.43512397987394"></circle><circle r="4" fill="#2CA02C" cx="141.09890109890108" cy="242.72004645550734"></circle><circle r="4" fill="#2CA02C" cx="146.15384615384616" cy="246.04808284101853"></circle><circle r="4" fill="#2CA02C" cx="161.31868131868134" cy="250.7735398331635"></circle><circle r="4" fill="#2CA02C" cx="166.3736263736264" cy="249.26971664226826"></circle><circle r="4" fill="#2CA02C" cx="171.42857142857144" cy="248.67267991946784"></circle><circle r="4" fill="#2CA02C" cx="176.4835164835165" cy="250.27226543619844"></circle><circle r="4" fill="#2CA02C" cx="196.7032967032967" cy="250.01098797928975"></circle><circle r="4" fill="#2CA02C" cx="201.75824175824175" cy="247.6441216049404"></circle><circle r="4" fill="#2CA02C" cx="206.8131868131868" cy="247.75525319294684"></circle><circle r="4" fill="#2CA02C" cx="211.86813186813185" cy="240.8721882421667"></circle><circle r="4" fill="#2CA02C" cx="216.92307692307693" cy="247.65476186336656"></circle><circle r="4" fill="#2CA02C" cx="232.0879120879121" cy="250.75580606911993"></circle><circle r="4" fill="#2CA02C" cx="237.14285714285714" cy="251.77490637615747"></circle><circle r="4" fill="#2CA02C" cx="242.1978021978022" cy="261.4693640533126"></circle><circle r="4" fill="#2CA02C" cx="247.25274725274727" cy="263.5974157385417"></circle><circle r="4" fill="#2CA02C" cx="252.30769230769232" cy="259.53047251788155"></circle><circle r="4" fill="#2CA02C" cx="267.4725274725275" cy="262.8455041430941"></circle><circle r="4" fill="#2CA02C" cx="272.5274725274725" cy="260.75055548407954"></circle><circle r="4" fill="#2CA02C" cx="277.5824175824176" cy="257.03592304241846"></circle><circle r="4" fill="#2CA02C" cx="282.6373626373627" cy="258.20635146929453"></circle><circle r="4" fill="#2CA02C" cx="287.6923076923077" cy="265.01611686202784"></circle><circle r="4" fill="#2CA02C" cx="302.8571428571429" cy="270.02531407887005"></circle><circle r="4" fill="#2CA02C" cx="307.91208791208794" cy="272.42173672662534"></circle><circle r="4" fill="#2CA02C" cx="312.967032967033" cy="274.26486593622104"></circle><circle r="4" fill="#2CA02C" cx="318.021978021978" cy="280.1891253777118"></circle><circle r="4" fill="#2CA02C" cx="323.0769230769231" cy="276.91547253526755"></circle><circle r="4" fill="#2CA02C" cx="338.24175824175825" cy="278.9950519321109"></circle><circle r="4" fill="#2CA02C" cx="343.2967032967033" cy="279.61928042644485"></circle><circle r="4" fill="#2CA02C" cx="348.35164835164835" cy="280.08981629906776"></circle><circle r="4" fill="#2CA02C" cx="353.4065934065934" cy="283.2227812800995"></circle><circle r="4" fill="#2CA02C" cx="358.46153846153845" cy="284.6911369429077"></circle><circle r="4" fill="#2CA02C" cx="373.6263736263736" cy="289.611665339532"></circle><circle r="4" fill="#2CA02C" cx="378.6813186813187" cy="292.69024677749695"></circle><circle r="4" fill="#2CA02C" cx="383.7362637362637" cy="290.8695803356897"></circle><circle r="4" fill="#2CA02C" cx="388.7912087912088" cy="285.03517196535313"></circle><circle r="4" fill="#2CA02C" cx="393.84615384615387" cy="280.17257386460443"></circle><circle r="4" fill="#2CA02C" cx="414.0659340659341" cy="277.92629708575146"></circle><circle r="4" fill="#2CA02C" cx="419.12087912087907" cy="278.73259222426606"></circle><circle r="4" fill="#2CA02C" cx="424.1758241758242" cy="276.2912440409337"></circle><circle r="4" fill="#2CA02C" cx="429.2307692307692" cy="282.1126476509717"></circle><circle r="4" fill="#2CA02C" cx="444.3956043956044" cy="283.1518462239253"></circle><circle r="4" fill="#2CA02C" cx="449.45054945054943" cy="284.87911484176965"></circle><circle r="4" fill="#2CA02C" cx="454.50549450549454" cy="281.3441845424167"></circle><circle r="4" fill="#2CA02C" cx="459.56043956043953" cy="279.36391422421735"></circle><circle r="4" fill="#2CA02C" cx="464.61538461538464" cy="285.0552702312691"></circle><circle r="4" fill="#2CA02C" cx="479.7802197802198" cy="289.61875884514944"></circle><circle r="4" fill="#2CA02C" cx="484.83516483516485" cy="289.72634368034716"></circle><circle r="4" fill="#2CA02C" cx="489.8901098901099" cy="286.41604105887956"></circle><circle r="4" fill="#2CA02C" cx="494.94505494505495" cy="290.1389492570944"></circle><circle r="4" fill="#2CA02C" cx="500" cy="291.6274031858186"></circle></g><g><path fill="none" stroke="#D62728" stroke-width="3px" stroke-linecap="round" stroke-linejoin="round" stroke-opacity="1" style="mix-blend-mode: multiply;" d="M40,350.8955342209488L55.16483516483517,350.71937883144926L60.21978021978022,350.354890867807L65.27472527472527,350.3308911738013L70.32967032967034,350.5970749720954L75.38461538461539,350.4492936050656L90.54945054945054,350.0155257365597L95.6043956043956,349.8034299185985L100.65934065934067,350.025811319705L105.71428571428572,350.3161130370984L110.76923076923077,350.3950873996391L125.93406593406593,350.09154447175985L130.98901098901098,350.125120398349L136.04395604395603,350.8238898142128L141.09890109890108,351.0746452377889L146.15384615384616,351.39509435405637L161.31868131868134,351.77719785664857L166.3736263736264,351.66340620403565L171.42857142857144,351.5539297673399L176.4835164835165,351.56906257932377L196.7032967032967,351.7886656907301L201.75824175824175,351.243707121671L206.8131868131868,351.3674296821483L211.86813186813185,351.4696352755862L216.92307692307693,352.31175261746876L232.0879120879121,352.7129494726813L237.14285714285714,352.87438583802464L242.1978021978022,353.218125297736L247.25274725274727,352.74652539927047L252.30769230769232,354.54076853265275L267.4725274725275,355.2611140281028L272.5274725274725,355.0775695702518L277.5824175824176,355.1036382033958L282.6373626373627,355.3993191625491L287.6923076923077,355.92524349153473L302.8571428571429,356.522339326882L307.91208791208794,356.68282989147633L312.967032967033,356.976796586772L318.021978021978,356.9029650158039L323.0769230769231,356.618811003279L338.24175824175825,356.52322601508416L343.2967032967033,356.30953415835904L348.35164835164835,356.65794350926853L353.4065934065934,356.9912200481941L358.46153846153845,357.00729866092695L373.6263736263736,357.134863536947L378.6813186813187,357.539075132047L383.7362637362637,357.21100049724083L388.7912087912088,356.680110714323L393.84615384615387,356.38200614075043L414.0659340659341,355.5771888159062L419.12087912087907,355.200701005261L424.1758241758242,355.14974598990915L429.2307692307692,355.29279835319403L444.3956043956044,354.75014517346057L449.45054945054943,355.32826588128114L454.50549450549454,355.3696446640495L459.56043956043953,355.6592961434279L464.61538461538464,356.46322678007004L479.7802197802198,357.4042985253158L484.83516483516485,357.60055218073137L489.8901098901099,357.1063712893838L494.94505494505495,357.63601970881854L500,357.3522794841213"></path><text></text><circle r="4" fill="#D62728" cx="40" cy="350.8955342209488"></circle><circle r="4" fill="#D62728" cx="55.16483516483517" cy="350.71937883144926"></circle><circle r="4" fill="#D62728" cx="60.21978021978022" cy="350.354890867807"></circle><circle r="4" fill="#D62728" cx="65.27472527472527" cy="350.3308911738013"></circle><circle r="4" fill="#D62728" cx="70.32967032967034" cy="350.5970749720954"></circle><circle r="4" fill="#D62728" cx="75.38461538461539" cy="350.4492936050656"></circle><circle r="4" fill="#D62728" cx="90.54945054945054" cy="350.0155257365597"></circle><circle r="4" fill="#D62728" cx="95.6043956043956" cy="349.8034299185985"></circle><circle r="4" fill="#D62728" cx="100.65934065934067" cy="350.025811319705"></circle><circle r="4" fill="#D62728" cx="105.71428571428572" cy="350.3161130370984"></circle><circle r="4" fill="#D62728" cx="110.76923076923077" cy="350.3950873996391"></circle><circle r="4" fill="#D62728" cx="125.93406593406593" cy="350.09154447175985"></circle><circle r="4" fill="#D62728" cx="130.98901098901098" cy="350.125120398349"></circle><circle r="4" fill="#D62728" cx="136.04395604395603" cy="350.8238898142128"></circle><circle r="4" fill="#D62728" cx="141.09890109890108" cy="351.0746452377889"></circle><circle r="4" fill="#D62728" cx="146.15384615384616" cy="351.39509435405637"></circle><circle r="4" fill="#D62728" cx="161.31868131868134" cy="351.77719785664857"></circle><circle r="4" fill="#D62728" cx="166.3736263736264" cy="351.66340620403565"></circle><circle r="4" fill="#D62728" cx="171.42857142857144" cy="351.5539297673399"></circle><circle r="4" fill="#D62728" cx="176.4835164835165" cy="351.56906257932377"></circle><circle r="4" fill="#D62728" cx="196.7032967032967" cy="351.7886656907301"></circle><circle r="4" fill="#D62728" cx="201.75824175824175" cy="351.243707121671"></circle><circle r="4" fill="#D62728" cx="206.8131868131868" cy="351.3674296821483"></circle><circle r="4" fill="#D62728" cx="211.86813186813185" cy="351.4696352755862"></circle><circle r="4" fill="#D62728" cx="216.92307692307693" cy="352.31175261746876"></circle><circle r="4" fill="#D62728" cx="232.0879120879121" cy="352.7129494726813"></circle><circle r="4" fill="#D62728" cx="237.14285714285714" cy="352.87438583802464"></circle><circle r="4" fill="#D62728" cx="242.1978021978022" cy="353.218125297736"></circle><circle r="4" fill="#D62728" cx="247.25274725274727" cy="352.74652539927047"></circle><circle r="4" fill="#D62728" cx="252.30769230769232" cy="354.54076853265275"></circle><circle r="4" fill="#D62728" cx="267.4725274725275" cy="355.2611140281028"></circle><circle r="4" fill="#D62728" cx="272.5274725274725" cy="355.0775695702518"></circle><circle r="4" fill="#D62728" cx="277.5824175824176" cy="355.1036382033958"></circle><circle r="4" fill="#D62728" cx="282.6373626373627" cy="355.3993191625491"></circle><circle r="4" fill="#D62728" cx="287.6923076923077" cy="355.92524349153473"></circle><circle r="4" fill="#D62728" cx="302.8571428571429" cy="356.522339326882"></circle><circle r="4" fill="#D62728" cx="307.91208791208794" cy="356.68282989147633"></circle><circle r="4" fill="#D62728" cx="312.967032967033" cy="356.976796586772"></circle><circle r="4" fill="#D62728" cx="318.021978021978" cy="356.9029650158039"></circle><circle r="4" fill="#D62728" cx="323.0769230769231" cy="356.618811003279"></circle><circle r="4" fill="#D62728" cx="338.24175824175825" cy="356.52322601508416"></circle><circle r="4" fill="#D62728" cx="343.2967032967033" cy="356.30953415835904"></circle><circle r="4" fill="#D62728" cx="348.35164835164835" cy="356.65794350926853"></circle><circle r="4" fill="#D62728" cx="353.4065934065934" cy="356.9912200481941"></circle><circle r="4" fill="#D62728" cx="358.46153846153845" cy="357.00729866092695"></circle><circle r="4" fill="#D62728" cx="373.6263736263736" cy="357.134863536947"></circle><circle r="4" fill="#D62728" cx="378.6813186813187" cy="357.539075132047"></circle><circle r="4" fill="#D62728" cx="383.7362637362637" cy="357.21100049724083"></circle><circle r="4" fill="#D62728" cx="388.7912087912088" cy="356.680110714323"></circle><circle r="4" fill="#D62728" cx="393.84615384615387" cy="356.38200614075043"></circle><circle r="4" fill="#D62728" cx="414.0659340659341" cy="355.5771888159062"></circle><circle r="4" fill="#D62728" cx="419.12087912087907" cy="355.200701005261"></circle><circle r="4" fill="#D62728" cx="424.1758241758242" cy="355.14974598990915"></circle><circle r="4" fill="#D62728" cx="429.2307692307692" cy="355.29279835319403"></circle><circle r="4" fill="#D62728" cx="444.3956043956044" cy="354.75014517346057"></circle><circle r="4" fill="#D62728" cx="449.45054945054943" cy="355.32826588128114"></circle><circle r="4" fill="#D62728" cx="454.50549450549454" cy="355.3696446640495"></circle><circle r="4" fill="#D62728" cx="459.56043956043953" cy="355.6592961434279"></circle><circle r="4" fill="#D62728" cx="464.61538461538464" cy="356.46322678007004"></circle><circle r="4" fill="#D62728" cx="479.7802197802198" cy="357.4042985253158"></circle><circle r="4" fill="#D62728" cx="484.83516483516485" cy="357.60055218073137"></circle><circle r="4" fill="#D62728" cx="489.8901098901099" cy="357.1063712893838"></circle><circle r="4" fill="#D62728" cx="494.94505494505495" cy="357.63601970881854"></circle><circle r="4" fill="#D62728" cx="500" cy="357.3522794841213"></circle></g></g></svg>